HIERARCHY
ROOT Hips
{
	OFFSET 0.00000 0.00000 0.00000
	CHANNELS 6 Xposition Yposition Zposition Zrotation Yrotation Xrotation 
	JOINT LHipJoint
	{
		OFFSET 0 0 0
		CHANNELS 3 Zrotation Yrotation Xrotation
		JOINT LeftHip
		{
			OFFSET 1.75344 -1.53157 0.77399
			CHANNELS 3 Zrotation Yrotation Xrotation
			JOINT LeftKnee
			{
				OFFSET 2.25415 -6.19323 0.00000
				CHANNELS 3 Zrotation Yrotation Xrotation
				JOINT LeftAnkle
				{
					OFFSET 2.30342 -6.32861 0.00000
					CHANNELS 3 Zrotation Yrotation Xrotation
					JOINT LeftToe
					{
						OFFSET 0.10958 -0.30108 1.49206
						CHANNELS 3 Zrotation Yrotation Xrotation
						End Site
						{
							OFFSET 0.00000 -0.00000 0.77783
						}
					}
				}
			}
		}
	}
	JOINT RHipJoint
	{
		OFFSET 0 0 0
		CHANNELS 3 Zrotation Yrotation Xrotation
		JOINT RightHip
		{
			OFFSET -1.81912 -1.53156 0.77399
			CHANNELS 3 Zrotation Yrotation Xrotation
			JOINT RightKnee
			{
				OFFSET -2.22882 -6.12365 0.00000
				CHANNELS 3 Zrotation Yrotation Xrotation
				JOINT RightAnkle
				{
					OFFSET -2.21943 -6.09785 0.00000
					CHANNELS 3 Zrotation Yrotation Xrotation
					JOINT RightToe
					{
						OFFSET -0.18931 -0.52012 1.59379
						CHANNELS 3 Zrotation Yrotation Xrotation
						End Site
						{
							OFFSET -0.00000 -0.00000 0.84686
						}
					}
				}
			}
		}
	}
	JOINT lowerback
	{
		OFFSET 0 0 0
		CHANNELS 3 Zrotation Yrotation Xrotation
		JOINT Chest
		{
			OFFSET -0.00200 1.66634 -0.14248
			CHANNELS 3 Zrotation Yrotation Xrotation
			JOINT Chest2
			{
				OFFSET -0.00875 1.64542 0.09514
				CHANNELS 3 Zrotation Yrotation Xrotation
				JOINT lowerneck
				{
					OFFSET 0 0 0
					CHANNELS 3 Zrotation Yrotation Xrotation
					JOINT Neck
					{
						OFFSET 0.02257 1.59605 0.00839
						CHANNELS 3 Zrotation Yrotation Xrotation
						JOINT Head
						{
							OFFSET -0.10214 1.57530 -0.23335
							CHANNELS 3 Zrotation Yrotation Xrotation
							End Site
							{
								OFFSET -0.03588 1.60717 -0.08062
							}
						}
					}
				}
				JOINT LeftCollar
				{
					OFFSET 0 0 0
					CHANNELS 3 Zrotation Yrotation Xrotation
					JOINT LeftShoulder
					{
						OFFSET 2.54983 1.10186 0.40078
CHANNELS 3 Zrotation Xrotation Yrotation
						JOINT LeftElbow
						{
OFFSET 0 -4.288400 0.000000
CHANNELS 3 Zrotation Xrotation Yrotation
							JOINT LeftWrist
							{
OFFSET 0 -3.065520 -0.000000
CHANNELS 3 Zrotation Xrotation Yrotation
								JOINT lhand
								{
									OFFSET 0 0 0
CHANNELS 3 Zrotation Xrotation Yrotation
									JOINT LFingers
									{
OFFSET 0 -0.753040 0.000000
CHANNELS 3 Zrotation Xrotation Yrotation
										End Site
										{
OFFSET 0 -0.607120 0.000000
										}
									}
								}
								JOINT LThumb
								{
OFFSET 0 0.000000 0.000000
CHANNELS 3 Zrotation Xrotation Yrotation
									End Site
									{
OFFSET 0 -0.616390 0.616390
									}
								}
							}
						}
					}
				}
				JOINT RightCollar
				{
					OFFSET 0 0 0
					CHANNELS 3 Zrotation Yrotation Xrotation
					JOINT RightShoulder
					{
						OFFSET -2.60909 1.35448 0.21802
CHANNELS 3 Zrotation Xrotation Yrotation
						JOINT RightElbow
						{
OFFSET 0 -4.521720 -0.000000
CHANNELS 3 Zrotation Xrotation Yrotation
							JOINT RightWrist
							{
OFFSET 0 -2.891400 0.000000
CHANNELS 3 Zrotation Xrotation Yrotation
								JOINT rhand
								{
									OFFSET 0 0 0
CHANNELS 3 Zrotation Xrotation Yrotation
									JOINT RFingers
									{
OFFSET 0 -0.680540 0.000000
CHANNELS 3 Zrotation Xrotation Yrotation
										End Site
										{
OFFSET 0 -0.548670 0.000000
										}
									}
								}
								JOINT RThumb
								{
OFFSET 0 0.000000 0.000000
CHANNELS 3 Zrotation Xrotation Yrotation
									End Site
									{
OFFSET 0 -0.557050 0.557050
									}
								}
							}
						}
					}
				}
			}
		}
	}
}
MOTION
Frames: 12
Frame Time: 0.008333333333333333
8.830200 15.593200 14.131000 -178.754000 1.747400 -179.675000 0.000000 0.000000 0.000000 -24.674700 -23.232000 4.486900 1.424900 7.548500 21.350800 1.006800 14.823800 -29.434900 2.783000 -10.335200 -30.069200 0.000000 0.000000 0.000000 27.883900 17.896700 10.107900 -0.356900 -3.838000 10.621300 1.796900 -26.537100 -24.741700 -0.006500 0.520800 -1.431200 1.577300 1.087400 9.202200 -0.056600 1.727400 -4.360400 -1.254200 0.755500 -9.786400 -7.402800 -2.243700 -7.702800 7.305400 -2.921700 7.936300 3.277800 -1.338700 3.838500 0.000000 -0.000000 0.000000 6.570800 21.991200 -34.418000 16.919100 -26.750900 4.050800 -10.826600 29.202900 39.552900 0.000000 0.000000 0.000000 -7.125000 0.000000 0.000000 -23.197800 -7.347400 -28.249700 0.000000 -0.000000 0.000000 -6.925800 26.217300 45.896500 -21.985800 -32.960900 -6.578100 -18.437800 19.879000 53.762800 0.000000 0.000000 0.000000 7.125000 0.000000 -0.000000 68.075700 78.444200 -56.764300
8.829341 15.591872 14.136078 -178.769626 1.836390 -179.670312 0.000000 0.000000 0.000000 -24.627119 -23.026439 4.317436 1.435916 7.576314 21.434321 1.007269 14.737701 -29.353645 2.800423 -10.364811 -30.166316 0.000000 0.000000 0.000000 27.829912 17.830602 10.035005 -0.358384 -3.846047 10.643958 1.819714 -26.512098 -24.440352 -0.030642 1.088963 -2.993961 1.489247 1.091385 9.239546 -0.025192 1.721931 -4.325632 -1.170523 0.759250 -9.773743 -7.416707 -2.234949 -7.621310 7.323526 -2.905058 7.768633 3.286941 -1.330653 3.773496 0.000000 0.000000 0.000000 6.536423 21.961901 -34.405030 16.868628 -26.684177 4.028142 -10.379070 29.108206 39.856123 0.000000 0.000000 0.000000 -7.125000 0.000000 0.000000 -22.981614 -7.638279 -28.039842 0.000000 0.000000 0.000000 -7.090420 26.179563 46.146204 -22.036350 -33.018091 -6.605680 -18.704771 19.972834 53.575991 0.000000 0.000000 0.000000 7.125000 0.000000 0.000000 67.118292 78.509751 -55.940104
8.827919 15.589700 14.140763 -178.774000 1.931344 -179.658873 0.000000 0.000000 0.000000 -24.558271 -22.796799 4.139082 1.444288 7.597377 21.497701 1.013251 14.606086 -29.266819 2.822234 -10.401624 -30.287286 0.000000 0.000000 0.000000 27.818569 17.887433 9.994628 -0.361613 -3.863153 10.691933 1.868633 -26.610532 -24.174166 -0.063392 1.595014 -4.388277 1.422236 1.097001 9.257033 0.013868 1.721581 -4.281581 -1.090671 0.764576 -9.738525 -7.488675 -2.217085 -7.596137 7.374115 -2.871257 7.648899 3.316392 -1.313266 3.732346 0.000000 0.000000 0.000000 6.504015 21.893726 -34.419066 16.818325 -26.617622 4.005597 -10.311242 29.115456 40.027922 0.000000 0.000000 0.000000 -7.125000 0.000000 0.000000 -22.946530 -7.800321 -28.045406 0.000000 0.000000 0.000000 -7.315239 26.140757 46.466121 -22.113793 -33.105326 -6.647944 -18.604643 19.844271 53.498439 0.000000 0.000000 0.000000 7.125000 0.000000 0.000000 66.763884 78.452036 -55.549958
8.825865 15.588816 14.145191 -178.766778 2.026381 -179.632085 0.000000 0.000000 0.000000 -24.476686 -22.596420 3.958889 1.450773 7.613650 21.546683 1.033104 14.443264 -29.245854 2.820715 -10.399004 -30.278694 0.000000 0.000000 0.000000 27.797633 17.918109 9.901583 -0.366207 -3.887218 10.759516 1.892071 -26.632076 -23.978016 -0.086730 1.898916 -5.226396 1.405223 1.107791 9.277150 0.041080 1.734262 -4.244136 -1.054022 0.772543 -9.710117 -7.591260 -2.206579 -7.608813 7.449049 -2.846433 7.575002 3.357728 -1.299574 3.712780 0.000000 0.000000 0.000000 6.499403 21.833137 -34.473828 16.789547 -26.579506 3.992690 -10.279312 29.078593 40.097839 0.000000 0.000000 0.000000 -7.125000 0.000000 0.000000 -22.930396 -7.866508 -28.044880 0.000000 0.000000 0.000000 -7.543478 26.110134 46.812919 -22.219813 -33.224391 -6.705958 -17.783363 19.230669 53.648483 0.000000 0.000000 0.000000 7.125000 0.000000 0.000000 67.633054 78.158665 -56.052323
8.823299 15.590151 14.149501 -178.750621 2.121780 -179.588487 0.000000 0.000000 0.000000 -24.393208 -22.453824 3.787101 1.455989 7.626728 21.585984 1.067784 14.271691 -29.318980 2.782295 -10.333870 -30.064865 0.000000 0.000000 0.000000 27.738415 17.843953 9.715549 -0.371952 -3.917110 10.843591 1.866726 -26.478161 -23.848471 -0.094090 1.978274 -5.445566 1.442311 1.127084 9.309921 0.046134 1.764488 -4.220357 -1.075087 0.784593 -9.701711 -7.691184 -2.214571 -7.634134 7.534304 -2.849111 7.529730 3.400168 -1.298980 3.706157 0.000000 0.000000 0.000000 6.535180 21.809430 -34.573248 16.800846 -26.594415 3.997734 -10.143818 28.937378 40.060568 0.000000 0.000000 0.000000 -7.125000 0.000000 0.000000 -22.867597 -7.833847 -27.943166 0.000000 0.000000 0.000000 -7.733959 26.087665 47.152006 -22.338505 -33.357419 -6.771072 -16.317261 18.182922 53.977659 0.000000 0.000000 0.000000 7.125000 0.000000 0.000000 69.477885 77.651011 -57.236870
8.820799 15.592338 14.153876 -178.735776 2.233975 -179.541609 0.000000 0.000000 0.000000 -24.329610 -22.356630 3.648576 1.460286 7.637510 21.618330 1.102005 14.144339 -29.431800 2.717369 -10.222613 -29.700857 0.000000 0.000000 0.000000 27.653018 17.713241 9.477486 -0.379140 -3.954613 10.948988 1.823207 -26.237051 -23.692288 -0.102762 2.067342 -5.691832 1.484189 1.160680 9.340001 0.033868 1.813085 -4.200121 -1.120559 0.804516 -9.694288 -7.723530 -2.246839 -7.619367 7.595480 -2.891614 7.453162 3.421810 -1.318200 3.685296 0.000000 0.000000 0.000000 6.602451 21.827712 -34.705210 16.879132 -26.698094 4.032893 -10.210072 28.807447 39.800160 0.000000 0.000000 0.000000 -7.125000 0.000000 0.000000 -22.903146 -7.588284 -27.909883 0.000000 0.000000 0.000000 -7.859748 26.050631 47.453432 -22.402806 -33.429299 -6.806465 -15.327351 17.516628 54.011724 0.000000 0.000000 0.000000 7.125000 0.000000 0.000000 69.842831 77.271689 -57.172413
8.818780 15.593013 14.159352 -178.754634 2.353186 -179.521556 0.000000 0.000000 0.000000 -24.292562 -22.183295 3.501109 1.464858 7.648980 21.652739 1.106375 14.044224 -29.367646 2.708431 -10.207374 -29.651041 0.000000 0.000000 0.000000 27.582066 17.702896 9.363161 -0.383233 -3.975676 11.008165 1.792688 -26.079097 -23.616374 -0.103800 2.077725 -5.720543 1.476682 1.183409 9.442851 0.010046 1.841391 -4.203340 -1.149661 0.816392 -9.757367 -7.722173 -2.257303 -7.617738 7.678528 -2.914514 7.434990 3.445929 -1.326415 3.682525 0.000000 0.000000 0.000000 6.682652 21.904528 -34.815024 16.979979 -26.831280 4.078369 -10.305696 28.594016 39.686119 0.000000 0.000000 0.000000 -7.125000 0.000000 0.000000 -22.950182 -7.479664 -27.939809 0.000000 0.000000 0.000000 -7.972745 26.041523 47.767376 -22.470271 -33.504412 -6.843646 -15.071888 17.112940 53.863793 0.000000 0.000000 0.000000 7.125000 0.000000 0.000000 69.259558 77.139567 -56.486104
8.817203 15.593528 14.165071 -178.777604 2.442623 -179.512185 0.000000 0.000000 0.000000 -24.238997 -21.947070 3.320856 1.469609 7.660824 21.688414 1.096086 13.934629 -29.194621 2.766727 -10.306797 -29.976768 0.000000 0.000000 0.000000 27.520302 17.703470 9.280948 -0.386201 -3.990753 11.050645 1.766517 -25.950696 -23.571542 -0.100798 2.047108 -5.635853 1.447732 1.185426 9.573091 -0.002633 1.840670 -4.214391 -1.150549 0.815727 -9.847104 -7.695218 -2.254718 -7.631451 7.702017 -2.916689 7.442159 3.448569 -1.325769 3.687044 0.000000 0.000000 0.000000 6.758559 22.007032 -34.947629 17.065315 -26.943801 4.116944 -10.037760 28.171457 39.754520 0.000000 0.000000 0.000000 -7.125000 0.000000 0.000000 -22.822908 -7.548829 -27.781393 0.000000 0.000000 0.000000 -8.138044 26.061495 48.132420 -22.616368 -33.666328 -6.924558 -14.692437 16.394095 53.856395 0.000000 0.000000 0.000000 7.125000 0.000000 0.000000 69.323506 76.991037 -56.385496
8.815949 15.594175 14.170427 -178.776222 2.512013 -179.499484 0.000000 0.000000 0.000000 -24.146071 -21.685296 3.116362 1.474728 7.673508 21.726723 1.084025 13.815460 -29.000561 2.855161 -10.456661 -30.468650 0.000000 0.000000 0.000000 27.480673 17.682544 9.188302 -0.388676 -4.003257 11.085919 1.744892 -25.837318 -23.517070 -0.098928 2.028026 -5.583071 1.428862 1.180779 9.682296 -0.001018 1.833258 -4.219943 -1.139976 0.812028 -9.918705 -7.639403 -2.250679 -7.636257 7.654516 -2.912429 7.440426 3.424899 -1.324053 3.685464 0.000000 0.000000 0.000000 6.842659 22.105535 -35.110452 17.129449 -27.028182 4.146011 -9.575610 27.680409 39.907580 0.000000 0.000000 0.000000 -7.125000 0.000000 0.000000 -22.602785 -7.701506 -27.518965 0.000000 0.000000 0.000000 -8.337079 26.111617 48.511732 -22.844706 -33.918096 -7.051637 -14.191413 15.519496 53.978487 0.000000 0.000000 0.000000 7.125000 0.000000 0.000000 69.975955 76.824103 -56.814549
8.814811 15.595105 14.174884 -178.724477 2.583035 -179.467225 0.000000 0.000000 0.000000 -23.999326 -21.448333 2.904011 1.480584 7.687955 21.770377 1.083872 13.695335 -28.887196 2.919731 -10.564063 -30.823248 0.000000 0.000000 0.000000 27.475277 17.621396 9.049209 -0.390914 -4.014669 11.117988 1.729012 -25.727466 -23.409935 -0.103738 2.076541 -5.717268 1.454613 1.190043 9.718973 0.010002 1.849981 -4.207645 -1.146474 0.818412 -9.926027 -7.547667 -2.258734 -7.601732 7.545511 -2.921958 7.394080 3.375634 -1.331326 3.663652 0.000000 0.000000 0.000000 6.960009 22.169626 -35.306205 17.174009 -27.086623 4.166260 -9.223579 27.324593 40.014457 0.000000 0.000000 0.000000 -7.125000 0.000000 0.000000 -22.435477 -7.810070 -27.317191 0.000000 0.000000 0.000000 -8.525793 26.189572 48.848746 -23.136933 -34.238197 -7.215233 -13.772439 14.828248 54.144572 0.000000 0.000000 0.000000 7.125000 0.000000 0.000000 70.786191 76.698349 -57.436374
8.812624 15.597683 14.179416 -178.686975 2.672572 -179.374250 0.000000 0.000000 0.000000 -23.881740 -21.325981 2.667824 1.490038 7.711472 21.841241 1.100436 13.592750 -28.906807 2.898323 -10.528670 -30.706209 0.000000 0.000000 0.000000 27.410663 17.505529 8.844976 -0.388805 -4.004043 11.088143 1.707135 -25.556673 -23.213750 -0.109598 2.134201 -5.876575 1.538681 1.220670 9.678892 -0.049064 1.896312 -4.203816 -1.264060 0.833491 -9.892196 -7.352263 -2.289127 -7.536025 7.454646 -2.977587 7.319700 3.312427 -1.359062 3.630447 0.000000 0.000000 0.000000 7.250888 22.212128 -35.626539 17.198854 -27.119203 4.177589 -8.949655 27.001759 40.207985 0.000000 0.000000 0.000000 -7.125000 0.000000 0.000000 -22.304375 -7.998989 -27.193824 0.000000 0.000000 0.000000 -8.582281 26.257858 49.118374 -23.425937 -34.550953 -7.378603 -13.921199 14.575731 54.372946 0.000000 0.000000 0.000000 7.125000 0.000000 0.000000 71.717034 76.800543 -58.423472
8.810911 15.599726 14.183828 -178.643529 2.700835 -179.307426 0.000000 0.000000 0.000000 -23.748583 -21.173140 2.430447 1.501809 7.740516 21.928806 1.117535 13.414032 -28.861101 2.889218 -10.513544 -30.656329 0.000000 0.000000 0.000000 27.350566 17.266637 8.629333 -0.386695 -3.993120 11.057465 1.682050 -25.344575 -22.948148 -0.121520 2.246004 -6.186068 1.632615 1.205237 9.731526 -0.095888 1.884875 -4.208724 -1.366490 0.819389 -9.924811 -7.179622 -2.303651 -7.549778 7.391119 -3.008670 7.286507 3.262413 -1.372594 3.621668 0.000000 0.000000 0.000000 7.539211 22.287200 -36.000303 17.265778 -27.206818 4.208174 -8.577904 26.459442 40.339585 0.000000 0.000000 0.000000 -7.125000 0.000000 0.000000 -22.128104 -8.133408 -26.988083 0.000000 0.000000 0.000000 -8.705869 26.335534 49.499437 -23.711672 -34.857349 -7.541379 -14.188230 14.351861 54.560907 0.000000 0.000000 0.000000 7.125000 0.000000 0.000000 72.468986 76.937149 -59.282670
